<mxfile host="app.diagrams.net" modified="2023-09-23T06:01:15.301Z" agent="Mozilla/5.0 (Windows NT 10.0; Win64; x64) AppleWebKit/537.36 (KHTML, like Gecko) Chrome/117.0.0.0 Safari/537.36" etag="EtaSXzU2m62-YjGd4yyy" version="21.7.5" type="github">
  <diagram name="第 1 页" id="8cU1o1lWuMe0GgKudyYO">
    <mxGraphModel dx="743" dy="393" grid="0" gridSize="10" guides="1" tooltips="1" connect="1" arrows="1" fold="1" page="1" pageScale="1" pageWidth="1920" pageHeight="1200" math="0" shadow="0">
      <root>
        <mxCell id="0" />
        <mxCell id="1" parent="0" />
      </root>
    </mxGraphModel>
  </diagram>
</mxfile>
